M48
INCH,TZ
T1C0.025
T2C0.031
T3C0.032
T4C0.032
T5C0.039
T6C0.118
%
G90
G05
T1
X010250Y-003850
X018400Y-001000
X019600Y000700
X019600Y-004900
X020050Y-002800
X022050Y005600
X022850Y003950
X023850Y-003350
T2
X020750Y-001250
X020750Y-002250
X020750Y-003250
X023000Y-001250
X023000Y-002250
X023000Y-003250
T3
X006000Y006750
X006000Y-001500
X006000Y-003500
X007250Y-000750
X007250Y-003750
X008250Y-000750
X008250Y-003750
X009000Y006750
X009250Y-000750
X009250Y-003750
X010500Y-000250
X010500Y-002250
X011000Y009750
X011000Y007750
X013750Y008500
X014750Y009500
X014750Y008500
X018250Y009750
X018250Y007750
X018500Y004500
X018500Y003250
X018500Y002000
X021500Y004500
X021500Y003250
X021500Y002000
T4
X012250Y000250
X012250Y-002750
X013250Y000250
X013250Y-002750
X013750Y004000
X013750Y002000
X014250Y000250
X014250Y-002750
X015250Y000250
X015250Y-002750
X016250Y000250
X016250Y-002750
X016750Y004000
X016750Y002000
X017250Y000250
X017250Y-002750
X018250Y000250
X018250Y-002750
T5
X007000Y004750
X007000Y002750
X010000Y-005000
X010000Y-006000
X010000Y-007000
X011000Y-005000
X011000Y-006000
X011000Y-007000
X013500Y-007250
X014500Y-007250
X015500Y-007250
X016500Y-007250
X017500Y-007250
X018500Y-007250
X023750Y006500
X023750Y005500
X023750Y004500
X023750Y003500
X023750Y002500
X023750Y001500
T6
X007000Y009000
X007000Y-006500
X022500Y009000
X022500Y-006500
T0
M30
