G04 (created by PCBNEW (2013-07-07 BZR 4022)-stable) date 02/06/2014 16:55:50*
%MOIN*%
G04 Gerber Fmt 3.4, Leading zero omitted, Abs format*
%FSLAX34Y34*%
G01*
G70*
G90*
G04 APERTURE LIST*
%ADD10C,0.00590551*%
%ADD11C,0.012*%
%ADD12C,0.08*%
%ADD13R,0.075X0.075*%
%ADD14C,0.075*%
%ADD15C,0.2559*%
%ADD16C,0.0551181*%
%ADD17R,0.08X0.08*%
%ADD18C,0.0787*%
%ADD19C,0.063*%
%ADD20R,0.0984X0.0984*%
%ADD21C,0.0984*%
%ADD22R,0.0827X0.0827*%
%ADD23C,0.0866*%
%ADD24R,0.062X0.09*%
%ADD25O,0.062X0.09*%
%ADD26C,0.035*%
%ADD27C,0.02*%
%ADD28C,0.01*%
G04 APERTURE END LIST*
G54D10*
G54D11*
X11023Y6721D02*
X11023Y6350D01*
X11328Y6550D01*
X11328Y6464D01*
X11366Y6407D01*
X11404Y6378D01*
X11480Y6350D01*
X11671Y6350D01*
X11747Y6378D01*
X11785Y6407D01*
X11823Y6464D01*
X11823Y6635D01*
X11785Y6692D01*
X11747Y6721D01*
X11823Y5778D02*
X11823Y6121D01*
X11823Y5950D02*
X11023Y5950D01*
X11138Y6007D01*
X11214Y6064D01*
X11252Y6121D01*
X10985Y5092D02*
X12014Y5607D01*
X11023Y4607D02*
X11023Y4892D01*
X11404Y4921D01*
X11366Y4892D01*
X11328Y4835D01*
X11328Y4692D01*
X11366Y4635D01*
X11404Y4607D01*
X11480Y4578D01*
X11671Y4578D01*
X11747Y4607D01*
X11785Y4635D01*
X11823Y4692D01*
X11823Y4835D01*
X11785Y4892D01*
X11747Y4921D01*
X10985Y3892D02*
X12014Y4407D01*
X11823Y3378D02*
X11823Y3721D01*
X11823Y3550D02*
X11023Y3550D01*
X11138Y3607D01*
X11214Y3664D01*
X11252Y3721D01*
X11290Y2864D02*
X11823Y2864D01*
X10985Y3007D02*
X11557Y3150D01*
X11557Y2778D01*
X11023Y1721D02*
X11823Y1521D01*
X11023Y1321D01*
X11823Y807D02*
X11823Y1149D01*
X11823Y978D02*
X11023Y978D01*
X11138Y1035D01*
X11214Y1092D01*
X11252Y1149D01*
G54D12*
X13750Y2000D03*
X13750Y4000D03*
X16750Y2000D03*
X16750Y4000D03*
G54D13*
X13750Y8500D03*
G54D14*
X14750Y8500D03*
X14750Y9500D03*
X6000Y-1500D03*
X6000Y-3500D03*
G54D15*
X7000Y9000D03*
X22500Y-6500D03*
X22500Y9000D03*
X7000Y-6500D03*
G54D16*
X20750Y-1250D03*
X20750Y-3250D03*
X20750Y-2250D03*
X23000Y-1250D03*
X23000Y-3250D03*
X23000Y-2250D03*
G54D14*
X10500Y-250D03*
X10500Y-2250D03*
G54D17*
X18250Y9750D03*
G54D12*
X18250Y7750D03*
G54D18*
X8250Y-750D03*
X8250Y-3750D03*
G54D17*
X11000Y7750D03*
G54D12*
X11000Y9750D03*
G54D18*
X9000Y6750D03*
X6000Y6750D03*
G54D19*
X10000Y-7000D03*
X11000Y-7000D03*
X10000Y-6000D03*
X11000Y-6000D03*
X10000Y-5000D03*
X11000Y-5000D03*
G54D20*
X7000Y4750D03*
G54D21*
X7000Y2750D03*
G54D22*
X18500Y-7250D03*
G54D23*
X17500Y-7250D03*
X16500Y-7250D03*
X15500Y-7250D03*
X14500Y-7250D03*
X13500Y-7250D03*
G54D17*
X23750Y6500D03*
G54D12*
X23750Y5500D03*
X23750Y4500D03*
X9250Y-750D03*
X9250Y-3750D03*
X7250Y-750D03*
X7250Y-3750D03*
X18500Y3250D03*
X21500Y3250D03*
X18500Y2000D03*
X21500Y2000D03*
X18500Y4500D03*
X21500Y4500D03*
G54D24*
X12250Y-2750D03*
G54D25*
X13250Y-2750D03*
X14250Y-2750D03*
X15250Y-2750D03*
X16250Y-2750D03*
X17250Y-2750D03*
X18250Y-2750D03*
X18250Y250D03*
X17250Y250D03*
X16250Y250D03*
X15250Y250D03*
X14250Y250D03*
X13250Y250D03*
X12250Y250D03*
G54D17*
X23750Y1500D03*
G54D12*
X23750Y2500D03*
X23750Y3500D03*
G54D26*
X23850Y-3350D03*
X19600Y-4900D03*
X19600Y700D03*
X20050Y-2800D03*
X22850Y3950D03*
X22050Y5600D03*
X18400Y-1000D03*
X10250Y-3850D03*
G54D27*
X30700Y-15300D02*
X30750Y-15250D01*
X23000Y-3250D02*
X23000Y-3200D01*
X23000Y2500D02*
X23750Y2500D01*
X22800Y2300D02*
X23000Y2500D01*
X22800Y500D02*
X22800Y2300D01*
X23750Y-450D02*
X22800Y500D01*
X23750Y-2450D02*
X23750Y-450D01*
X23000Y-3200D02*
X23750Y-2450D01*
X11000Y-7000D02*
X11850Y-7000D01*
X15850Y-7900D02*
X16500Y-7250D01*
X12750Y-7900D02*
X15850Y-7900D01*
X11850Y-7000D02*
X12750Y-7900D01*
X11000Y-7000D02*
X11700Y-7000D01*
X12250Y-6450D02*
X12250Y-2750D01*
X11700Y-7000D02*
X12250Y-6450D01*
X16500Y-7250D02*
X16500Y-6900D01*
X16500Y-6900D02*
X16950Y-6450D01*
X16950Y-6450D02*
X19100Y-6450D01*
X19100Y-6450D02*
X21850Y-3700D01*
X21850Y-3700D02*
X21850Y-3250D01*
X20750Y-3250D02*
X21850Y-3250D01*
X21850Y-3250D02*
X23000Y-3250D01*
X14750Y9500D02*
X18000Y9500D01*
X18000Y9500D02*
X18250Y9750D01*
X18500Y-7250D02*
X19000Y-7250D01*
X23200Y-4000D02*
X23850Y-3350D01*
X22250Y-4000D02*
X23200Y-4000D01*
X19000Y-7250D02*
X22250Y-4000D01*
X23750Y3500D02*
X22700Y3500D01*
X22150Y2950D02*
X22150Y-1250D01*
X22700Y3500D02*
X22150Y2950D01*
X8250Y-3750D02*
X8250Y-3900D01*
X8750Y-4400D02*
X8750Y-4900D01*
X8250Y-3900D02*
X8750Y-4400D01*
X8250Y-3750D02*
X8250Y-3850D01*
X8250Y-3850D02*
X8800Y-4400D01*
X11000Y-5000D02*
X10400Y-4400D01*
X10400Y-4400D02*
X8800Y-4400D01*
X16550Y-8200D02*
X17500Y-7250D01*
X9750Y-8200D02*
X16550Y-8200D01*
X8750Y-7200D02*
X9750Y-8200D01*
X8750Y-4900D02*
X8750Y-7200D01*
X7000Y2750D02*
X7700Y2750D01*
X7700Y2750D02*
X8100Y3150D01*
X8100Y3150D02*
X8100Y7200D01*
X8100Y7200D02*
X10650Y9750D01*
X10650Y9750D02*
X11000Y9750D01*
X23000Y-1250D02*
X22150Y-1250D01*
X22150Y-1250D02*
X20750Y-1250D01*
X14750Y8500D02*
X17500Y8500D01*
X17500Y8500D02*
X18250Y7750D01*
X11000Y9750D02*
X13500Y9750D01*
X13500Y9750D02*
X14750Y8500D01*
X7250Y-3750D02*
X8250Y-3750D01*
X6000Y-3500D02*
X7000Y-3500D01*
X7000Y-3500D02*
X7250Y-3750D01*
X18500Y-7250D02*
X17500Y-7250D01*
X12250Y250D02*
X11000Y250D01*
X11000Y250D02*
X10500Y-250D01*
X7000Y2750D02*
X9250Y2750D01*
X9250Y2750D02*
X10500Y1500D01*
X10500Y1500D02*
X10500Y-250D01*
X19600Y-4050D02*
X19600Y-4900D01*
X19600Y700D02*
X19600Y-4050D01*
X19600Y-4050D02*
X19600Y-4400D01*
X20150Y-2700D02*
X20150Y-1600D01*
X20050Y-2800D02*
X20150Y-2700D01*
X21500Y250D02*
X21500Y2000D01*
X20150Y-1100D02*
X21500Y250D01*
X20150Y-1600D02*
X20150Y-1100D01*
X19950Y5100D02*
X20850Y6000D01*
X21350Y6500D02*
X23750Y6500D01*
X20850Y6000D02*
X21350Y6500D01*
X16250Y250D02*
X16250Y650D01*
X16250Y650D02*
X16750Y1150D01*
X16750Y1150D02*
X18750Y1150D01*
X19300Y4450D02*
X19950Y5100D01*
X19300Y1700D02*
X19300Y4450D01*
X18750Y1150D02*
X19300Y1700D01*
X22850Y4800D02*
X22850Y3950D01*
X22050Y5600D02*
X22850Y4800D01*
X7000Y4750D02*
X7000Y5750D01*
X7000Y5750D02*
X6000Y6750D01*
X9250Y-750D02*
X9250Y-250D01*
X6000Y3750D02*
X7000Y4750D01*
X6000Y1250D02*
X6000Y3750D01*
X6750Y500D02*
X6000Y1250D01*
X8500Y500D02*
X6750Y500D01*
X9250Y-250D02*
X8500Y500D01*
X13750Y8500D02*
X11750Y8500D01*
X11750Y8500D02*
X11000Y7750D01*
X9000Y6750D02*
X10000Y6750D01*
X10000Y6750D02*
X11000Y7750D01*
X16750Y2000D02*
X18500Y2000D01*
X13750Y4000D02*
X14500Y4000D01*
X18150Y4850D02*
X18500Y4500D01*
X15350Y4850D02*
X18150Y4850D01*
X14500Y4000D02*
X15350Y4850D01*
X17950Y-1000D02*
X18400Y-1000D01*
X16250Y-2750D02*
X16250Y-2700D01*
X16250Y-2700D02*
X17950Y-1000D01*
X21500Y4500D02*
X20150Y4500D01*
X18900Y-1100D02*
X17250Y-2750D01*
X18900Y750D02*
X18900Y-1100D01*
X19700Y1550D02*
X18900Y750D01*
X19700Y4050D02*
X19700Y1550D01*
X20150Y4500D02*
X19700Y4050D01*
X16750Y4000D02*
X16750Y3950D01*
X17450Y3250D02*
X18500Y3250D01*
X16750Y3950D02*
X17450Y3250D01*
X14250Y-2750D02*
X14250Y-5500D01*
X15500Y-6750D02*
X15500Y-7250D01*
X14250Y-5500D02*
X15500Y-6750D01*
X17250Y250D02*
X17250Y-450D01*
X11450Y-2650D02*
X10250Y-3850D01*
X11450Y-2300D02*
X11450Y-2650D01*
X11850Y-1900D02*
X11450Y-2300D01*
X15800Y-1900D02*
X11850Y-1900D01*
X17250Y-450D02*
X15800Y-1900D01*
X14500Y-7250D02*
X14500Y-6750D01*
X13250Y-5500D02*
X13250Y-2750D01*
X14500Y-6750D02*
X13250Y-5500D01*
X8250Y-750D02*
X8250Y-1000D01*
X13250Y-450D02*
X13250Y250D01*
X12250Y-1450D02*
X13250Y-450D01*
X8700Y-1450D02*
X12250Y-1450D01*
X8250Y-1000D02*
X8700Y-1450D01*
X7250Y-750D02*
X8250Y-750D01*
X6000Y-1500D02*
X6500Y-1500D01*
X6500Y-1500D02*
X7250Y-750D01*
X9250Y-3750D02*
X9250Y-3000D01*
X9250Y-3000D02*
X8250Y-2000D01*
X8250Y-2000D02*
X8250Y-750D01*
G54D10*
G36*
X23826Y3494D02*
X23755Y3423D01*
X23750Y3429D01*
X23362Y3041D01*
X23365Y3034D01*
X23199Y2868D01*
X23191Y2850D01*
X23000Y2850D01*
X22866Y2823D01*
X22752Y2747D01*
X22552Y2547D01*
X22476Y2433D01*
X22450Y2300D01*
X22450Y500D01*
X22476Y366D01*
X22552Y252D01*
X23400Y-594D01*
X23400Y-960D01*
X23368Y-952D01*
X23297Y-1023D01*
X23297Y-881D01*
X23273Y-788D01*
X23075Y-719D01*
X22867Y-730D01*
X22726Y-788D01*
X22702Y-881D01*
X23000Y-1179D01*
X23297Y-881D01*
X23297Y-1023D01*
X23070Y-1250D01*
X23368Y-1547D01*
X23400Y-1539D01*
X23400Y-1906D01*
X23298Y-1804D01*
X23172Y-1752D01*
X23273Y-1711D01*
X23297Y-1618D01*
X23000Y-1320D01*
X22929Y-1391D01*
X22929Y-1250D01*
X22631Y-952D01*
X22538Y-976D01*
X22469Y-1174D01*
X22480Y-1382D01*
X22538Y-1523D01*
X22631Y-1547D01*
X22929Y-1250D01*
X22929Y-1391D01*
X22702Y-1618D01*
X22726Y-1711D01*
X22835Y-1749D01*
X22702Y-1804D01*
X22554Y-1951D01*
X22474Y-2144D01*
X22474Y-2354D01*
X22554Y-2547D01*
X22701Y-2695D01*
X22833Y-2750D01*
X22702Y-2804D01*
X22606Y-2900D01*
X21850Y-2900D01*
X21280Y-2900D01*
X21280Y-1325D01*
X21269Y-1117D01*
X21211Y-976D01*
X21118Y-952D01*
X20820Y-1250D01*
X21118Y-1547D01*
X21211Y-1523D01*
X21280Y-1325D01*
X21280Y-2900D01*
X21143Y-2900D01*
X21048Y-2804D01*
X20916Y-2749D01*
X21047Y-2695D01*
X21195Y-2548D01*
X21275Y-2355D01*
X21275Y-2145D01*
X21195Y-1952D01*
X21048Y-1804D01*
X20922Y-1752D01*
X21023Y-1711D01*
X21047Y-1618D01*
X20750Y-1320D01*
X20744Y-1326D01*
X20673Y-1255D01*
X20679Y-1250D01*
X20673Y-1244D01*
X20744Y-1173D01*
X20750Y-1179D01*
X21047Y-881D01*
X21023Y-788D01*
X20973Y-771D01*
X21747Y2D01*
X21823Y116D01*
X21850Y250D01*
X21850Y1441D01*
X21867Y1448D01*
X22050Y1631D01*
X22149Y1870D01*
X22150Y2128D01*
X22051Y2367D01*
X21868Y2550D01*
X21689Y2625D01*
X21867Y2698D01*
X22050Y2881D01*
X22149Y3120D01*
X22150Y3378D01*
X22051Y3617D01*
X21868Y3800D01*
X21689Y3875D01*
X21867Y3948D01*
X22050Y4131D01*
X22149Y4370D01*
X22150Y4628D01*
X22051Y4867D01*
X21868Y5050D01*
X21629Y5149D01*
X21371Y5150D01*
X21132Y5051D01*
X20949Y4868D01*
X20941Y4850D01*
X20194Y4850D01*
X20197Y4852D01*
X21097Y5752D01*
X21494Y6150D01*
X23099Y6150D01*
X23099Y6050D01*
X23137Y5958D01*
X23208Y5888D01*
X23215Y5885D01*
X23199Y5868D01*
X23100Y5629D01*
X23099Y5371D01*
X23198Y5132D01*
X23330Y4999D01*
X23199Y4868D01*
X23190Y4847D01*
X23173Y4933D01*
X23097Y5047D01*
X23097Y5047D01*
X22475Y5669D01*
X22475Y5684D01*
X22410Y5840D01*
X22291Y5960D01*
X22134Y6024D01*
X21965Y6025D01*
X21809Y5960D01*
X21689Y5841D01*
X21625Y5684D01*
X21624Y5515D01*
X21689Y5359D01*
X21808Y5239D01*
X21965Y5175D01*
X21979Y5175D01*
X22500Y4655D01*
X22500Y4201D01*
X22489Y4191D01*
X22425Y4034D01*
X22424Y3865D01*
X22489Y3709D01*
X22608Y3589D01*
X22765Y3525D01*
X22934Y3524D01*
X23090Y3589D01*
X23096Y3595D01*
X23105Y3347D01*
X23185Y3152D01*
X23291Y3112D01*
X23679Y3500D01*
X23291Y3887D01*
X23274Y3881D01*
X23275Y4034D01*
X23259Y4070D01*
X23365Y3965D01*
X23362Y3958D01*
X23750Y3570D01*
X23755Y3576D01*
X23826Y3505D01*
X23820Y3500D01*
X23826Y3494D01*
X23826Y3494D01*
G37*
G54D28*
X23826Y3494D02*
X23755Y3423D01*
X23750Y3429D01*
X23362Y3041D01*
X23365Y3034D01*
X23199Y2868D01*
X23191Y2850D01*
X23000Y2850D01*
X22866Y2823D01*
X22752Y2747D01*
X22552Y2547D01*
X22476Y2433D01*
X22450Y2300D01*
X22450Y500D01*
X22476Y366D01*
X22552Y252D01*
X23400Y-594D01*
X23400Y-960D01*
X23368Y-952D01*
X23297Y-1023D01*
X23297Y-881D01*
X23273Y-788D01*
X23075Y-719D01*
X22867Y-730D01*
X22726Y-788D01*
X22702Y-881D01*
X23000Y-1179D01*
X23297Y-881D01*
X23297Y-1023D01*
X23070Y-1250D01*
X23368Y-1547D01*
X23400Y-1539D01*
X23400Y-1906D01*
X23298Y-1804D01*
X23172Y-1752D01*
X23273Y-1711D01*
X23297Y-1618D01*
X23000Y-1320D01*
X22929Y-1391D01*
X22929Y-1250D01*
X22631Y-952D01*
X22538Y-976D01*
X22469Y-1174D01*
X22480Y-1382D01*
X22538Y-1523D01*
X22631Y-1547D01*
X22929Y-1250D01*
X22929Y-1391D01*
X22702Y-1618D01*
X22726Y-1711D01*
X22835Y-1749D01*
X22702Y-1804D01*
X22554Y-1951D01*
X22474Y-2144D01*
X22474Y-2354D01*
X22554Y-2547D01*
X22701Y-2695D01*
X22833Y-2750D01*
X22702Y-2804D01*
X22606Y-2900D01*
X21850Y-2900D01*
X21280Y-2900D01*
X21280Y-1325D01*
X21269Y-1117D01*
X21211Y-976D01*
X21118Y-952D01*
X20820Y-1250D01*
X21118Y-1547D01*
X21211Y-1523D01*
X21280Y-1325D01*
X21280Y-2900D01*
X21143Y-2900D01*
X21048Y-2804D01*
X20916Y-2749D01*
X21047Y-2695D01*
X21195Y-2548D01*
X21275Y-2355D01*
X21275Y-2145D01*
X21195Y-1952D01*
X21048Y-1804D01*
X20922Y-1752D01*
X21023Y-1711D01*
X21047Y-1618D01*
X20750Y-1320D01*
X20744Y-1326D01*
X20673Y-1255D01*
X20679Y-1250D01*
X20673Y-1244D01*
X20744Y-1173D01*
X20750Y-1179D01*
X21047Y-881D01*
X21023Y-788D01*
X20973Y-771D01*
X21747Y2D01*
X21823Y116D01*
X21850Y250D01*
X21850Y1441D01*
X21867Y1448D01*
X22050Y1631D01*
X22149Y1870D01*
X22150Y2128D01*
X22051Y2367D01*
X21868Y2550D01*
X21689Y2625D01*
X21867Y2698D01*
X22050Y2881D01*
X22149Y3120D01*
X22150Y3378D01*
X22051Y3617D01*
X21868Y3800D01*
X21689Y3875D01*
X21867Y3948D01*
X22050Y4131D01*
X22149Y4370D01*
X22150Y4628D01*
X22051Y4867D01*
X21868Y5050D01*
X21629Y5149D01*
X21371Y5150D01*
X21132Y5051D01*
X20949Y4868D01*
X20941Y4850D01*
X20194Y4850D01*
X20197Y4852D01*
X21097Y5752D01*
X21494Y6150D01*
X23099Y6150D01*
X23099Y6050D01*
X23137Y5958D01*
X23208Y5888D01*
X23215Y5885D01*
X23199Y5868D01*
X23100Y5629D01*
X23099Y5371D01*
X23198Y5132D01*
X23330Y4999D01*
X23199Y4868D01*
X23190Y4847D01*
X23173Y4933D01*
X23097Y5047D01*
X23097Y5047D01*
X22475Y5669D01*
X22475Y5684D01*
X22410Y5840D01*
X22291Y5960D01*
X22134Y6024D01*
X21965Y6025D01*
X21809Y5960D01*
X21689Y5841D01*
X21625Y5684D01*
X21624Y5515D01*
X21689Y5359D01*
X21808Y5239D01*
X21965Y5175D01*
X21979Y5175D01*
X22500Y4655D01*
X22500Y4201D01*
X22489Y4191D01*
X22425Y4034D01*
X22424Y3865D01*
X22489Y3709D01*
X22608Y3589D01*
X22765Y3525D01*
X22934Y3524D01*
X23090Y3589D01*
X23096Y3595D01*
X23105Y3347D01*
X23185Y3152D01*
X23291Y3112D01*
X23679Y3500D01*
X23291Y3887D01*
X23274Y3881D01*
X23275Y4034D01*
X23259Y4070D01*
X23365Y3965D01*
X23362Y3958D01*
X23750Y3570D01*
X23755Y3576D01*
X23826Y3505D01*
X23820Y3500D01*
X23826Y3494D01*
G54D10*
G36*
X24175Y7149D02*
X24100Y7150D01*
X24065Y7150D01*
X24065Y9310D01*
X23827Y9885D01*
X23387Y10326D01*
X22812Y10565D01*
X22189Y10565D01*
X21614Y10327D01*
X21173Y9887D01*
X20934Y9312D01*
X20934Y8689D01*
X21172Y8114D01*
X21612Y7673D01*
X22187Y7434D01*
X22810Y7434D01*
X23385Y7672D01*
X23826Y8112D01*
X24065Y8687D01*
X24065Y9310D01*
X24065Y7150D01*
X23300Y7150D01*
X23208Y7112D01*
X23138Y7041D01*
X23100Y6949D01*
X23099Y6850D01*
X23099Y6850D01*
X21350Y6850D01*
X21216Y6823D01*
X21102Y6747D01*
X20602Y6247D01*
X19702Y5347D01*
X19101Y4746D01*
X19051Y4867D01*
X18904Y5015D01*
X18904Y7644D01*
X18900Y7760D01*
X18894Y7902D01*
X18814Y8097D01*
X18708Y8137D01*
X18637Y8066D01*
X18637Y8208D01*
X18597Y8314D01*
X18355Y8404D01*
X18097Y8394D01*
X17902Y8314D01*
X17862Y8208D01*
X18250Y7820D01*
X18637Y8208D01*
X18637Y8066D01*
X18320Y7750D01*
X18708Y7362D01*
X18814Y7402D01*
X18904Y7644D01*
X18904Y5015D01*
X18868Y5050D01*
X18637Y5146D01*
X18637Y7291D01*
X18250Y7679D01*
X18179Y7608D01*
X18179Y7750D01*
X17791Y8137D01*
X17685Y8097D01*
X17595Y7855D01*
X17605Y7597D01*
X17685Y7402D01*
X17791Y7362D01*
X18179Y7750D01*
X18179Y7608D01*
X17862Y7291D01*
X17902Y7185D01*
X18144Y7095D01*
X18402Y7105D01*
X18597Y7185D01*
X18637Y7291D01*
X18637Y5146D01*
X18629Y5149D01*
X18371Y5150D01*
X18338Y5136D01*
X18283Y5173D01*
X18150Y5200D01*
X15379Y5200D01*
X15379Y8400D01*
X15369Y8648D01*
X15293Y8832D01*
X15190Y8869D01*
X14820Y8500D01*
X15190Y8130D01*
X15293Y8167D01*
X15379Y8400D01*
X15379Y5200D01*
X15350Y5200D01*
X15216Y5173D01*
X15119Y5108D01*
X15102Y5097D01*
X14355Y4350D01*
X14308Y4350D01*
X14301Y4367D01*
X14118Y4550D01*
X13879Y4649D01*
X13621Y4650D01*
X13382Y4551D01*
X13199Y4368D01*
X13100Y4129D01*
X13099Y3871D01*
X13198Y3632D01*
X13381Y3449D01*
X13620Y3350D01*
X13878Y3349D01*
X14117Y3448D01*
X14300Y3631D01*
X14308Y3650D01*
X14500Y3650D01*
X14633Y3676D01*
X14633Y3676D01*
X14747Y3752D01*
X15494Y4500D01*
X16330Y4500D01*
X16199Y4368D01*
X16100Y4129D01*
X16099Y3871D01*
X16198Y3632D01*
X16381Y3449D01*
X16620Y3350D01*
X16855Y3349D01*
X17202Y3002D01*
X17202Y3002D01*
X17316Y2926D01*
X17449Y2900D01*
X17449Y2900D01*
X17450Y2900D01*
X17941Y2900D01*
X17948Y2882D01*
X18131Y2699D01*
X18310Y2624D01*
X18132Y2551D01*
X17949Y2368D01*
X17941Y2350D01*
X17308Y2350D01*
X17301Y2367D01*
X17118Y2550D01*
X16879Y2649D01*
X16621Y2650D01*
X16382Y2551D01*
X16199Y2368D01*
X16100Y2129D01*
X16099Y1871D01*
X16198Y1632D01*
X16381Y1449D01*
X16503Y1398D01*
X16502Y1397D01*
X16006Y901D01*
X15854Y799D01*
X15750Y644D01*
X15645Y799D01*
X15464Y921D01*
X15250Y963D01*
X15035Y921D01*
X14854Y799D01*
X14749Y644D01*
X14645Y799D01*
X14464Y921D01*
X14400Y933D01*
X14400Y2128D01*
X14301Y2367D01*
X14118Y2550D01*
X13879Y2649D01*
X13621Y2650D01*
X13382Y2551D01*
X13199Y2368D01*
X13100Y2129D01*
X13099Y1871D01*
X13198Y1632D01*
X13381Y1449D01*
X13620Y1350D01*
X13878Y1349D01*
X14117Y1448D01*
X14300Y1631D01*
X14399Y1870D01*
X14400Y2128D01*
X14400Y933D01*
X14250Y963D01*
X14035Y921D01*
X13854Y799D01*
X13749Y644D01*
X13645Y799D01*
X13464Y921D01*
X13250Y963D01*
X13035Y921D01*
X12854Y799D01*
X12750Y644D01*
X12748Y650D01*
X12610Y821D01*
X12418Y926D01*
X12386Y933D01*
X12370Y923D01*
X12370Y7117D01*
X11491Y7117D01*
X11541Y7137D01*
X11611Y7208D01*
X11649Y7300D01*
X11650Y7399D01*
X11650Y7905D01*
X11894Y8150D01*
X13124Y8150D01*
X13124Y8075D01*
X13162Y7983D01*
X13233Y7913D01*
X13325Y7875D01*
X13424Y7874D01*
X14174Y7874D01*
X14266Y7912D01*
X14336Y7983D01*
X14360Y8039D01*
X14380Y8059D01*
X14417Y7956D01*
X14650Y7870D01*
X14898Y7880D01*
X15082Y7956D01*
X15119Y8059D01*
X14750Y8429D01*
X14744Y8423D01*
X14673Y8494D01*
X14679Y8500D01*
X14673Y8505D01*
X14744Y8576D01*
X14750Y8570D01*
X15119Y8940D01*
X15107Y8973D01*
X15279Y9145D01*
X15281Y9150D01*
X17696Y9150D01*
X17708Y9138D01*
X17800Y9100D01*
X17899Y9099D01*
X18699Y9099D01*
X18791Y9137D01*
X18861Y9208D01*
X18899Y9300D01*
X18900Y9399D01*
X18900Y10199D01*
X18862Y10291D01*
X18791Y10361D01*
X18699Y10399D01*
X18600Y10400D01*
X17800Y10400D01*
X17708Y10362D01*
X17638Y10291D01*
X17600Y10199D01*
X17599Y10100D01*
X17599Y9850D01*
X15281Y9850D01*
X15280Y9853D01*
X15104Y10029D01*
X14874Y10124D01*
X14626Y10125D01*
X14396Y10030D01*
X14220Y9854D01*
X14125Y9624D01*
X14124Y9376D01*
X14219Y9146D01*
X14392Y8973D01*
X14380Y8940D01*
X14360Y8960D01*
X14337Y9016D01*
X14266Y9086D01*
X14174Y9124D01*
X14075Y9125D01*
X13325Y9125D01*
X13233Y9087D01*
X13163Y9016D01*
X13125Y8924D01*
X13124Y8850D01*
X11750Y8850D01*
X11749Y8850D01*
X11654Y8830D01*
X11654Y9644D01*
X11644Y9902D01*
X11564Y10097D01*
X11458Y10137D01*
X11387Y10066D01*
X11387Y10208D01*
X11347Y10314D01*
X11105Y10404D01*
X10847Y10394D01*
X10652Y10314D01*
X10612Y10208D01*
X11000Y9820D01*
X11387Y10208D01*
X11387Y10066D01*
X11070Y9750D01*
X11458Y9362D01*
X11564Y9402D01*
X11654Y9644D01*
X11654Y8830D01*
X11616Y8823D01*
X11502Y8747D01*
X11502Y8747D01*
X11502Y8747D01*
X11387Y8632D01*
X11387Y9291D01*
X11000Y9679D01*
X10929Y9608D01*
X10929Y9750D01*
X10541Y10137D01*
X10435Y10097D01*
X10345Y9855D01*
X10355Y9597D01*
X10435Y9402D01*
X10541Y9362D01*
X10929Y9750D01*
X10929Y9608D01*
X10612Y9291D01*
X10652Y9185D01*
X10894Y9095D01*
X11152Y9105D01*
X11347Y9185D01*
X11387Y9291D01*
X11387Y8632D01*
X11155Y8400D01*
X10550Y8400D01*
X10458Y8362D01*
X10388Y8291D01*
X10350Y8199D01*
X10349Y8100D01*
X10349Y7594D01*
X9855Y7100D01*
X9551Y7100D01*
X9545Y7114D01*
X9364Y7295D01*
X9128Y7393D01*
X8872Y7393D01*
X8635Y7295D01*
X8565Y7225D01*
X8565Y9310D01*
X8327Y9885D01*
X7887Y10326D01*
X7312Y10565D01*
X6689Y10565D01*
X6114Y10327D01*
X5673Y9887D01*
X5434Y9312D01*
X5434Y8689D01*
X5672Y8114D01*
X6112Y7673D01*
X6687Y7434D01*
X7310Y7434D01*
X7885Y7672D01*
X8326Y8112D01*
X8565Y8687D01*
X8565Y9310D01*
X8565Y7225D01*
X8454Y7114D01*
X8356Y6878D01*
X8356Y6622D01*
X8454Y6385D01*
X8635Y6204D01*
X8871Y6106D01*
X9127Y6106D01*
X9364Y6204D01*
X9545Y6385D01*
X9551Y6400D01*
X10000Y6400D01*
X10133Y6426D01*
X10133Y6426D01*
X10247Y6502D01*
X10510Y6765D01*
X10510Y382D01*
X11690Y382D01*
X11690Y300D01*
X12200Y300D01*
X12200Y307D01*
X12300Y307D01*
X12300Y300D01*
X12307Y300D01*
X12307Y200D01*
X12300Y200D01*
X12300Y-384D01*
X12386Y-433D01*
X12418Y-426D01*
X12610Y-321D01*
X12748Y-150D01*
X12750Y-144D01*
X12854Y-299D01*
X12884Y-320D01*
X12200Y-1005D01*
X12200Y-384D01*
X12200Y200D01*
X11690Y200D01*
X11690Y60D01*
X11751Y-150D01*
X11889Y-321D01*
X12081Y-426D01*
X12113Y-433D01*
X12200Y-384D01*
X12200Y-1005D01*
X12105Y-1100D01*
X11129Y-1100D01*
X11129Y-349D01*
X11119Y-101D01*
X11043Y82D01*
X10940Y119D01*
X10869Y48D01*
X10869Y190D01*
X10832Y293D01*
X10599Y379D01*
X10351Y369D01*
X10167Y293D01*
X10130Y190D01*
X10500Y-179D01*
X10869Y190D01*
X10869Y48D01*
X10570Y-250D01*
X10940Y-619D01*
X11043Y-582D01*
X11129Y-349D01*
X11129Y-1100D01*
X10869Y-1100D01*
X10869Y-690D01*
X10500Y-320D01*
X10429Y-391D01*
X10429Y-250D01*
X10059Y119D01*
X9956Y82D01*
X9870Y-150D01*
X9880Y-398D01*
X9956Y-582D01*
X10059Y-619D01*
X10429Y-250D01*
X10429Y-391D01*
X10130Y-690D01*
X10167Y-793D01*
X10400Y-879D01*
X10648Y-869D01*
X10832Y-793D01*
X10869Y-690D01*
X10869Y-1100D01*
X9808Y-1100D01*
X9899Y-879D01*
X9900Y-621D01*
X9801Y-382D01*
X9618Y-199D01*
X9587Y-186D01*
X9573Y-116D01*
X9497Y-2D01*
X9497Y-2D01*
X8747Y747D01*
X8633Y823D01*
X8500Y850D01*
X7745Y850D01*
X7745Y2622D01*
X7737Y2917D01*
X7640Y3153D01*
X7524Y3204D01*
X7454Y3133D01*
X7454Y3274D01*
X7403Y3390D01*
X7127Y3495D01*
X6832Y3487D01*
X6596Y3390D01*
X6545Y3274D01*
X7000Y2820D01*
X7454Y3274D01*
X7454Y3133D01*
X7070Y2750D01*
X7524Y2295D01*
X7640Y2346D01*
X7745Y2622D01*
X7745Y850D01*
X7454Y850D01*
X7454Y2225D01*
X7000Y2679D01*
X6545Y2225D01*
X6596Y2109D01*
X6872Y2004D01*
X7167Y2012D01*
X7403Y2109D01*
X7454Y2225D01*
X7454Y850D01*
X6894Y850D01*
X6350Y1394D01*
X6350Y2370D01*
X6359Y2346D01*
X6475Y2295D01*
X6929Y2750D01*
X6475Y3204D01*
X6359Y3153D01*
X6350Y3127D01*
X6350Y3605D01*
X6752Y4007D01*
X7541Y4007D01*
X7633Y4045D01*
X7703Y4116D01*
X7741Y4208D01*
X7742Y4307D01*
X7742Y5291D01*
X7704Y5383D01*
X7633Y5453D01*
X7541Y5491D01*
X7442Y5492D01*
X7350Y5492D01*
X7350Y5750D01*
X7323Y5883D01*
X7247Y5997D01*
X6637Y6607D01*
X6643Y6621D01*
X6643Y6877D01*
X6545Y7114D01*
X6364Y7295D01*
X6128Y7393D01*
X5872Y7393D01*
X5635Y7295D01*
X5454Y7114D01*
X5356Y6878D01*
X5356Y6622D01*
X5454Y6385D01*
X5635Y6204D01*
X5871Y6106D01*
X6127Y6106D01*
X6142Y6112D01*
X6650Y5605D01*
X6650Y5492D01*
X6458Y5492D01*
X6366Y5454D01*
X6296Y5383D01*
X6258Y5291D01*
X6257Y5192D01*
X6257Y4502D01*
X5752Y3997D01*
X5676Y3883D01*
X5650Y3750D01*
X5650Y1250D01*
X5676Y1116D01*
X5752Y1002D01*
X6502Y252D01*
X6502Y252D01*
X6616Y176D01*
X6749Y150D01*
X6749Y150D01*
X6750Y150D01*
X8355Y150D01*
X8792Y-287D01*
X8745Y-335D01*
X8614Y-204D01*
X8378Y-106D01*
X8122Y-106D01*
X7885Y-204D01*
X7754Y-335D01*
X7618Y-199D01*
X7379Y-100D01*
X7121Y-99D01*
X6882Y-198D01*
X6699Y-381D01*
X6600Y-620D01*
X6599Y-878D01*
X6607Y-897D01*
X6444Y-1060D01*
X6354Y-970D01*
X6124Y-875D01*
X5876Y-874D01*
X5646Y-969D01*
X5470Y-1145D01*
X5375Y-1375D01*
X5374Y-1623D01*
X5469Y-1853D01*
X5645Y-2029D01*
X5875Y-2124D01*
X6123Y-2125D01*
X6353Y-2030D01*
X6529Y-1854D01*
X6534Y-1843D01*
X6633Y-1823D01*
X6633Y-1823D01*
X6747Y-1747D01*
X7102Y-1392D01*
X7120Y-1399D01*
X7378Y-1400D01*
X7617Y-1301D01*
X7754Y-1164D01*
X7885Y-1295D01*
X7900Y-1301D01*
X7900Y-2000D01*
X7926Y-2133D01*
X8002Y-2247D01*
X8900Y-3144D01*
X8900Y-3191D01*
X8882Y-3198D01*
X8710Y-3369D01*
X8703Y-3367D01*
X8632Y-3437D01*
X8632Y-3296D01*
X8594Y-3191D01*
X8354Y-3102D01*
X8098Y-3111D01*
X7905Y-3191D01*
X7867Y-3296D01*
X8250Y-3679D01*
X8632Y-3296D01*
X8632Y-3437D01*
X8320Y-3750D01*
X8703Y-4132D01*
X8711Y-4130D01*
X8881Y-4300D01*
X9120Y-4399D01*
X9378Y-4400D01*
X9617Y-4301D01*
X9800Y-4118D01*
X9851Y-3997D01*
X9889Y-4090D01*
X10008Y-4210D01*
X10165Y-4274D01*
X10334Y-4275D01*
X10490Y-4210D01*
X10610Y-4091D01*
X10674Y-3934D01*
X10674Y-3920D01*
X11689Y-2905D01*
X11689Y-3249D01*
X11727Y-3341D01*
X11798Y-3411D01*
X11890Y-3449D01*
X11900Y-3449D01*
X11900Y-6305D01*
X11569Y-6635D01*
X11569Y-5085D01*
X11559Y-4860D01*
X11493Y-4703D01*
X11396Y-4673D01*
X11326Y-4744D01*
X11326Y-4603D01*
X11296Y-4506D01*
X11085Y-4430D01*
X10860Y-4440D01*
X10703Y-4506D01*
X10673Y-4603D01*
X11000Y-4929D01*
X11326Y-4603D01*
X11326Y-4744D01*
X11070Y-5000D01*
X11396Y-5326D01*
X11493Y-5296D01*
X11569Y-5085D01*
X11569Y-6635D01*
X11555Y-6650D01*
X11448Y-6650D01*
X11320Y-6521D01*
X11269Y-6500D01*
X11319Y-6479D01*
X11478Y-6320D01*
X11564Y-6112D01*
X11565Y-5888D01*
X11479Y-5680D01*
X11320Y-5521D01*
X11275Y-5502D01*
X11296Y-5493D01*
X11326Y-5396D01*
X11000Y-5070D01*
X10673Y-5396D01*
X10703Y-5493D01*
X10725Y-5501D01*
X10680Y-5520D01*
X10521Y-5679D01*
X10500Y-5730D01*
X10479Y-5680D01*
X10320Y-5521D01*
X10269Y-5500D01*
X10319Y-5479D01*
X10478Y-5320D01*
X10497Y-5275D01*
X10506Y-5296D01*
X10603Y-5326D01*
X10929Y-5000D01*
X10603Y-4673D01*
X10506Y-4703D01*
X10498Y-4725D01*
X10479Y-4680D01*
X10320Y-4521D01*
X10112Y-4435D01*
X9888Y-4434D01*
X9680Y-4520D01*
X9521Y-4679D01*
X9435Y-4887D01*
X9434Y-5111D01*
X9520Y-5319D01*
X9679Y-5478D01*
X9730Y-5499D01*
X9680Y-5520D01*
X9521Y-5679D01*
X9435Y-5887D01*
X9434Y-6111D01*
X9520Y-6319D01*
X9679Y-6478D01*
X9730Y-6499D01*
X9680Y-6520D01*
X9521Y-6679D01*
X9435Y-6887D01*
X9434Y-7111D01*
X9520Y-7319D01*
X9679Y-7478D01*
X9887Y-7564D01*
X10111Y-7565D01*
X10319Y-7479D01*
X10478Y-7320D01*
X10499Y-7269D01*
X10520Y-7319D01*
X10679Y-7478D01*
X10887Y-7564D01*
X11111Y-7565D01*
X11319Y-7479D01*
X11449Y-7350D01*
X11700Y-7350D01*
X11705Y-7350D01*
X12502Y-8147D01*
X12543Y-8175D01*
X8632Y-8175D01*
X8632Y-4203D01*
X8250Y-3820D01*
X8179Y-3891D01*
X8179Y-3750D01*
X7796Y-3367D01*
X7758Y-3381D01*
X7708Y-3362D01*
X7637Y-3433D01*
X7637Y-3291D01*
X7597Y-3185D01*
X7355Y-3095D01*
X7097Y-3105D01*
X6902Y-3185D01*
X6862Y-3291D01*
X7250Y-3679D01*
X7637Y-3291D01*
X7637Y-3433D01*
X7320Y-3750D01*
X7708Y-4137D01*
X7758Y-4118D01*
X7796Y-4132D01*
X8179Y-3750D01*
X8179Y-3891D01*
X7867Y-4203D01*
X7905Y-4308D01*
X8145Y-4397D01*
X8401Y-4388D01*
X8594Y-4308D01*
X8632Y-4203D01*
X8632Y-8175D01*
X8565Y-8175D01*
X8565Y-6189D01*
X8327Y-5614D01*
X7887Y-5173D01*
X7637Y-5069D01*
X7637Y-4208D01*
X7250Y-3820D01*
X7179Y-3891D01*
X7179Y-3750D01*
X6791Y-3362D01*
X6685Y-3402D01*
X6627Y-3558D01*
X6619Y-3351D01*
X6543Y-3167D01*
X6440Y-3130D01*
X6369Y-3201D01*
X6369Y-3059D01*
X6332Y-2956D01*
X6099Y-2870D01*
X5851Y-2880D01*
X5667Y-2956D01*
X5630Y-3059D01*
X6000Y-3429D01*
X6369Y-3059D01*
X6369Y-3201D01*
X6070Y-3500D01*
X6440Y-3869D01*
X6543Y-3832D01*
X6597Y-3686D01*
X6605Y-3902D01*
X6685Y-4097D01*
X6791Y-4137D01*
X7179Y-3750D01*
X7179Y-3891D01*
X6862Y-4208D01*
X6902Y-4314D01*
X7144Y-4404D01*
X7402Y-4394D01*
X7597Y-4314D01*
X7637Y-4208D01*
X7637Y-5069D01*
X7312Y-4934D01*
X6689Y-4934D01*
X6369Y-5066D01*
X6369Y-3940D01*
X6000Y-3570D01*
X5929Y-3641D01*
X5929Y-3500D01*
X5559Y-3130D01*
X5456Y-3167D01*
X5370Y-3400D01*
X5380Y-3648D01*
X5456Y-3832D01*
X5559Y-3869D01*
X5929Y-3500D01*
X5929Y-3641D01*
X5630Y-3940D01*
X5667Y-4043D01*
X5900Y-4129D01*
X6148Y-4119D01*
X6332Y-4043D01*
X6369Y-3940D01*
X6369Y-5066D01*
X6114Y-5172D01*
X5673Y-5612D01*
X5434Y-6187D01*
X5434Y-6810D01*
X5672Y-7385D01*
X6112Y-7826D01*
X6687Y-8065D01*
X7310Y-8065D01*
X7885Y-7827D01*
X8326Y-7387D01*
X8565Y-6812D01*
X8565Y-6189D01*
X8565Y-8175D01*
X6534Y-8175D01*
X6053Y-8079D01*
X5672Y-7825D01*
X5419Y-7446D01*
X5325Y-6968D01*
X5325Y9468D01*
X5419Y9946D01*
X5672Y10325D01*
X6053Y10579D01*
X6534Y10675D01*
X22968Y10675D01*
X23446Y10580D01*
X23825Y10327D01*
X24079Y9946D01*
X24175Y9465D01*
X24175Y7149D01*
X24175Y7149D01*
G37*
G54D28*
X24175Y7149D02*
X24100Y7150D01*
X24065Y7150D01*
X24065Y9310D01*
X23827Y9885D01*
X23387Y10326D01*
X22812Y10565D01*
X22189Y10565D01*
X21614Y10327D01*
X21173Y9887D01*
X20934Y9312D01*
X20934Y8689D01*
X21172Y8114D01*
X21612Y7673D01*
X22187Y7434D01*
X22810Y7434D01*
X23385Y7672D01*
X23826Y8112D01*
X24065Y8687D01*
X24065Y9310D01*
X24065Y7150D01*
X23300Y7150D01*
X23208Y7112D01*
X23138Y7041D01*
X23100Y6949D01*
X23099Y6850D01*
X23099Y6850D01*
X21350Y6850D01*
X21216Y6823D01*
X21102Y6747D01*
X20602Y6247D01*
X19702Y5347D01*
X19101Y4746D01*
X19051Y4867D01*
X18904Y5015D01*
X18904Y7644D01*
X18900Y7760D01*
X18894Y7902D01*
X18814Y8097D01*
X18708Y8137D01*
X18637Y8066D01*
X18637Y8208D01*
X18597Y8314D01*
X18355Y8404D01*
X18097Y8394D01*
X17902Y8314D01*
X17862Y8208D01*
X18250Y7820D01*
X18637Y8208D01*
X18637Y8066D01*
X18320Y7750D01*
X18708Y7362D01*
X18814Y7402D01*
X18904Y7644D01*
X18904Y5015D01*
X18868Y5050D01*
X18637Y5146D01*
X18637Y7291D01*
X18250Y7679D01*
X18179Y7608D01*
X18179Y7750D01*
X17791Y8137D01*
X17685Y8097D01*
X17595Y7855D01*
X17605Y7597D01*
X17685Y7402D01*
X17791Y7362D01*
X18179Y7750D01*
X18179Y7608D01*
X17862Y7291D01*
X17902Y7185D01*
X18144Y7095D01*
X18402Y7105D01*
X18597Y7185D01*
X18637Y7291D01*
X18637Y5146D01*
X18629Y5149D01*
X18371Y5150D01*
X18338Y5136D01*
X18283Y5173D01*
X18150Y5200D01*
X15379Y5200D01*
X15379Y8400D01*
X15369Y8648D01*
X15293Y8832D01*
X15190Y8869D01*
X14820Y8500D01*
X15190Y8130D01*
X15293Y8167D01*
X15379Y8400D01*
X15379Y5200D01*
X15350Y5200D01*
X15216Y5173D01*
X15119Y5108D01*
X15102Y5097D01*
X14355Y4350D01*
X14308Y4350D01*
X14301Y4367D01*
X14118Y4550D01*
X13879Y4649D01*
X13621Y4650D01*
X13382Y4551D01*
X13199Y4368D01*
X13100Y4129D01*
X13099Y3871D01*
X13198Y3632D01*
X13381Y3449D01*
X13620Y3350D01*
X13878Y3349D01*
X14117Y3448D01*
X14300Y3631D01*
X14308Y3650D01*
X14500Y3650D01*
X14633Y3676D01*
X14633Y3676D01*
X14747Y3752D01*
X15494Y4500D01*
X16330Y4500D01*
X16199Y4368D01*
X16100Y4129D01*
X16099Y3871D01*
X16198Y3632D01*
X16381Y3449D01*
X16620Y3350D01*
X16855Y3349D01*
X17202Y3002D01*
X17202Y3002D01*
X17316Y2926D01*
X17449Y2900D01*
X17449Y2900D01*
X17450Y2900D01*
X17941Y2900D01*
X17948Y2882D01*
X18131Y2699D01*
X18310Y2624D01*
X18132Y2551D01*
X17949Y2368D01*
X17941Y2350D01*
X17308Y2350D01*
X17301Y2367D01*
X17118Y2550D01*
X16879Y2649D01*
X16621Y2650D01*
X16382Y2551D01*
X16199Y2368D01*
X16100Y2129D01*
X16099Y1871D01*
X16198Y1632D01*
X16381Y1449D01*
X16503Y1398D01*
X16502Y1397D01*
X16006Y901D01*
X15854Y799D01*
X15750Y644D01*
X15645Y799D01*
X15464Y921D01*
X15250Y963D01*
X15035Y921D01*
X14854Y799D01*
X14749Y644D01*
X14645Y799D01*
X14464Y921D01*
X14400Y933D01*
X14400Y2128D01*
X14301Y2367D01*
X14118Y2550D01*
X13879Y2649D01*
X13621Y2650D01*
X13382Y2551D01*
X13199Y2368D01*
X13100Y2129D01*
X13099Y1871D01*
X13198Y1632D01*
X13381Y1449D01*
X13620Y1350D01*
X13878Y1349D01*
X14117Y1448D01*
X14300Y1631D01*
X14399Y1870D01*
X14400Y2128D01*
X14400Y933D01*
X14250Y963D01*
X14035Y921D01*
X13854Y799D01*
X13749Y644D01*
X13645Y799D01*
X13464Y921D01*
X13250Y963D01*
X13035Y921D01*
X12854Y799D01*
X12750Y644D01*
X12748Y650D01*
X12610Y821D01*
X12418Y926D01*
X12386Y933D01*
X12370Y923D01*
X12370Y7117D01*
X11491Y7117D01*
X11541Y7137D01*
X11611Y7208D01*
X11649Y7300D01*
X11650Y7399D01*
X11650Y7905D01*
X11894Y8150D01*
X13124Y8150D01*
X13124Y8075D01*
X13162Y7983D01*
X13233Y7913D01*
X13325Y7875D01*
X13424Y7874D01*
X14174Y7874D01*
X14266Y7912D01*
X14336Y7983D01*
X14360Y8039D01*
X14380Y8059D01*
X14417Y7956D01*
X14650Y7870D01*
X14898Y7880D01*
X15082Y7956D01*
X15119Y8059D01*
X14750Y8429D01*
X14744Y8423D01*
X14673Y8494D01*
X14679Y8500D01*
X14673Y8505D01*
X14744Y8576D01*
X14750Y8570D01*
X15119Y8940D01*
X15107Y8973D01*
X15279Y9145D01*
X15281Y9150D01*
X17696Y9150D01*
X17708Y9138D01*
X17800Y9100D01*
X17899Y9099D01*
X18699Y9099D01*
X18791Y9137D01*
X18861Y9208D01*
X18899Y9300D01*
X18900Y9399D01*
X18900Y10199D01*
X18862Y10291D01*
X18791Y10361D01*
X18699Y10399D01*
X18600Y10400D01*
X17800Y10400D01*
X17708Y10362D01*
X17638Y10291D01*
X17600Y10199D01*
X17599Y10100D01*
X17599Y9850D01*
X15281Y9850D01*
X15280Y9853D01*
X15104Y10029D01*
X14874Y10124D01*
X14626Y10125D01*
X14396Y10030D01*
X14220Y9854D01*
X14125Y9624D01*
X14124Y9376D01*
X14219Y9146D01*
X14392Y8973D01*
X14380Y8940D01*
X14360Y8960D01*
X14337Y9016D01*
X14266Y9086D01*
X14174Y9124D01*
X14075Y9125D01*
X13325Y9125D01*
X13233Y9087D01*
X13163Y9016D01*
X13125Y8924D01*
X13124Y8850D01*
X11750Y8850D01*
X11749Y8850D01*
X11654Y8830D01*
X11654Y9644D01*
X11644Y9902D01*
X11564Y10097D01*
X11458Y10137D01*
X11387Y10066D01*
X11387Y10208D01*
X11347Y10314D01*
X11105Y10404D01*
X10847Y10394D01*
X10652Y10314D01*
X10612Y10208D01*
X11000Y9820D01*
X11387Y10208D01*
X11387Y10066D01*
X11070Y9750D01*
X11458Y9362D01*
X11564Y9402D01*
X11654Y9644D01*
X11654Y8830D01*
X11616Y8823D01*
X11502Y8747D01*
X11502Y8747D01*
X11502Y8747D01*
X11387Y8632D01*
X11387Y9291D01*
X11000Y9679D01*
X10929Y9608D01*
X10929Y9750D01*
X10541Y10137D01*
X10435Y10097D01*
X10345Y9855D01*
X10355Y9597D01*
X10435Y9402D01*
X10541Y9362D01*
X10929Y9750D01*
X10929Y9608D01*
X10612Y9291D01*
X10652Y9185D01*
X10894Y9095D01*
X11152Y9105D01*
X11347Y9185D01*
X11387Y9291D01*
X11387Y8632D01*
X11155Y8400D01*
X10550Y8400D01*
X10458Y8362D01*
X10388Y8291D01*
X10350Y8199D01*
X10349Y8100D01*
X10349Y7594D01*
X9855Y7100D01*
X9551Y7100D01*
X9545Y7114D01*
X9364Y7295D01*
X9128Y7393D01*
X8872Y7393D01*
X8635Y7295D01*
X8565Y7225D01*
X8565Y9310D01*
X8327Y9885D01*
X7887Y10326D01*
X7312Y10565D01*
X6689Y10565D01*
X6114Y10327D01*
X5673Y9887D01*
X5434Y9312D01*
X5434Y8689D01*
X5672Y8114D01*
X6112Y7673D01*
X6687Y7434D01*
X7310Y7434D01*
X7885Y7672D01*
X8326Y8112D01*
X8565Y8687D01*
X8565Y9310D01*
X8565Y7225D01*
X8454Y7114D01*
X8356Y6878D01*
X8356Y6622D01*
X8454Y6385D01*
X8635Y6204D01*
X8871Y6106D01*
X9127Y6106D01*
X9364Y6204D01*
X9545Y6385D01*
X9551Y6400D01*
X10000Y6400D01*
X10133Y6426D01*
X10133Y6426D01*
X10247Y6502D01*
X10510Y6765D01*
X10510Y382D01*
X11690Y382D01*
X11690Y300D01*
X12200Y300D01*
X12200Y307D01*
X12300Y307D01*
X12300Y300D01*
X12307Y300D01*
X12307Y200D01*
X12300Y200D01*
X12300Y-384D01*
X12386Y-433D01*
X12418Y-426D01*
X12610Y-321D01*
X12748Y-150D01*
X12750Y-144D01*
X12854Y-299D01*
X12884Y-320D01*
X12200Y-1005D01*
X12200Y-384D01*
X12200Y200D01*
X11690Y200D01*
X11690Y60D01*
X11751Y-150D01*
X11889Y-321D01*
X12081Y-426D01*
X12113Y-433D01*
X12200Y-384D01*
X12200Y-1005D01*
X12105Y-1100D01*
X11129Y-1100D01*
X11129Y-349D01*
X11119Y-101D01*
X11043Y82D01*
X10940Y119D01*
X10869Y48D01*
X10869Y190D01*
X10832Y293D01*
X10599Y379D01*
X10351Y369D01*
X10167Y293D01*
X10130Y190D01*
X10500Y-179D01*
X10869Y190D01*
X10869Y48D01*
X10570Y-250D01*
X10940Y-619D01*
X11043Y-582D01*
X11129Y-349D01*
X11129Y-1100D01*
X10869Y-1100D01*
X10869Y-690D01*
X10500Y-320D01*
X10429Y-391D01*
X10429Y-250D01*
X10059Y119D01*
X9956Y82D01*
X9870Y-150D01*
X9880Y-398D01*
X9956Y-582D01*
X10059Y-619D01*
X10429Y-250D01*
X10429Y-391D01*
X10130Y-690D01*
X10167Y-793D01*
X10400Y-879D01*
X10648Y-869D01*
X10832Y-793D01*
X10869Y-690D01*
X10869Y-1100D01*
X9808Y-1100D01*
X9899Y-879D01*
X9900Y-621D01*
X9801Y-382D01*
X9618Y-199D01*
X9587Y-186D01*
X9573Y-116D01*
X9497Y-2D01*
X9497Y-2D01*
X8747Y747D01*
X8633Y823D01*
X8500Y850D01*
X7745Y850D01*
X7745Y2622D01*
X7737Y2917D01*
X7640Y3153D01*
X7524Y3204D01*
X7454Y3133D01*
X7454Y3274D01*
X7403Y3390D01*
X7127Y3495D01*
X6832Y3487D01*
X6596Y3390D01*
X6545Y3274D01*
X7000Y2820D01*
X7454Y3274D01*
X7454Y3133D01*
X7070Y2750D01*
X7524Y2295D01*
X7640Y2346D01*
X7745Y2622D01*
X7745Y850D01*
X7454Y850D01*
X7454Y2225D01*
X7000Y2679D01*
X6545Y2225D01*
X6596Y2109D01*
X6872Y2004D01*
X7167Y2012D01*
X7403Y2109D01*
X7454Y2225D01*
X7454Y850D01*
X6894Y850D01*
X6350Y1394D01*
X6350Y2370D01*
X6359Y2346D01*
X6475Y2295D01*
X6929Y2750D01*
X6475Y3204D01*
X6359Y3153D01*
X6350Y3127D01*
X6350Y3605D01*
X6752Y4007D01*
X7541Y4007D01*
X7633Y4045D01*
X7703Y4116D01*
X7741Y4208D01*
X7742Y4307D01*
X7742Y5291D01*
X7704Y5383D01*
X7633Y5453D01*
X7541Y5491D01*
X7442Y5492D01*
X7350Y5492D01*
X7350Y5750D01*
X7323Y5883D01*
X7247Y5997D01*
X6637Y6607D01*
X6643Y6621D01*
X6643Y6877D01*
X6545Y7114D01*
X6364Y7295D01*
X6128Y7393D01*
X5872Y7393D01*
X5635Y7295D01*
X5454Y7114D01*
X5356Y6878D01*
X5356Y6622D01*
X5454Y6385D01*
X5635Y6204D01*
X5871Y6106D01*
X6127Y6106D01*
X6142Y6112D01*
X6650Y5605D01*
X6650Y5492D01*
X6458Y5492D01*
X6366Y5454D01*
X6296Y5383D01*
X6258Y5291D01*
X6257Y5192D01*
X6257Y4502D01*
X5752Y3997D01*
X5676Y3883D01*
X5650Y3750D01*
X5650Y1250D01*
X5676Y1116D01*
X5752Y1002D01*
X6502Y252D01*
X6502Y252D01*
X6616Y176D01*
X6749Y150D01*
X6749Y150D01*
X6750Y150D01*
X8355Y150D01*
X8792Y-287D01*
X8745Y-335D01*
X8614Y-204D01*
X8378Y-106D01*
X8122Y-106D01*
X7885Y-204D01*
X7754Y-335D01*
X7618Y-199D01*
X7379Y-100D01*
X7121Y-99D01*
X6882Y-198D01*
X6699Y-381D01*
X6600Y-620D01*
X6599Y-878D01*
X6607Y-897D01*
X6444Y-1060D01*
X6354Y-970D01*
X6124Y-875D01*
X5876Y-874D01*
X5646Y-969D01*
X5470Y-1145D01*
X5375Y-1375D01*
X5374Y-1623D01*
X5469Y-1853D01*
X5645Y-2029D01*
X5875Y-2124D01*
X6123Y-2125D01*
X6353Y-2030D01*
X6529Y-1854D01*
X6534Y-1843D01*
X6633Y-1823D01*
X6633Y-1823D01*
X6747Y-1747D01*
X7102Y-1392D01*
X7120Y-1399D01*
X7378Y-1400D01*
X7617Y-1301D01*
X7754Y-1164D01*
X7885Y-1295D01*
X7900Y-1301D01*
X7900Y-2000D01*
X7926Y-2133D01*
X8002Y-2247D01*
X8900Y-3144D01*
X8900Y-3191D01*
X8882Y-3198D01*
X8710Y-3369D01*
X8703Y-3367D01*
X8632Y-3437D01*
X8632Y-3296D01*
X8594Y-3191D01*
X8354Y-3102D01*
X8098Y-3111D01*
X7905Y-3191D01*
X7867Y-3296D01*
X8250Y-3679D01*
X8632Y-3296D01*
X8632Y-3437D01*
X8320Y-3750D01*
X8703Y-4132D01*
X8711Y-4130D01*
X8881Y-4300D01*
X9120Y-4399D01*
X9378Y-4400D01*
X9617Y-4301D01*
X9800Y-4118D01*
X9851Y-3997D01*
X9889Y-4090D01*
X10008Y-4210D01*
X10165Y-4274D01*
X10334Y-4275D01*
X10490Y-4210D01*
X10610Y-4091D01*
X10674Y-3934D01*
X10674Y-3920D01*
X11689Y-2905D01*
X11689Y-3249D01*
X11727Y-3341D01*
X11798Y-3411D01*
X11890Y-3449D01*
X11900Y-3449D01*
X11900Y-6305D01*
X11569Y-6635D01*
X11569Y-5085D01*
X11559Y-4860D01*
X11493Y-4703D01*
X11396Y-4673D01*
X11326Y-4744D01*
X11326Y-4603D01*
X11296Y-4506D01*
X11085Y-4430D01*
X10860Y-4440D01*
X10703Y-4506D01*
X10673Y-4603D01*
X11000Y-4929D01*
X11326Y-4603D01*
X11326Y-4744D01*
X11070Y-5000D01*
X11396Y-5326D01*
X11493Y-5296D01*
X11569Y-5085D01*
X11569Y-6635D01*
X11555Y-6650D01*
X11448Y-6650D01*
X11320Y-6521D01*
X11269Y-6500D01*
X11319Y-6479D01*
X11478Y-6320D01*
X11564Y-6112D01*
X11565Y-5888D01*
X11479Y-5680D01*
X11320Y-5521D01*
X11275Y-5502D01*
X11296Y-5493D01*
X11326Y-5396D01*
X11000Y-5070D01*
X10673Y-5396D01*
X10703Y-5493D01*
X10725Y-5501D01*
X10680Y-5520D01*
X10521Y-5679D01*
X10500Y-5730D01*
X10479Y-5680D01*
X10320Y-5521D01*
X10269Y-5500D01*
X10319Y-5479D01*
X10478Y-5320D01*
X10497Y-5275D01*
X10506Y-5296D01*
X10603Y-5326D01*
X10929Y-5000D01*
X10603Y-4673D01*
X10506Y-4703D01*
X10498Y-4725D01*
X10479Y-4680D01*
X10320Y-4521D01*
X10112Y-4435D01*
X9888Y-4434D01*
X9680Y-4520D01*
X9521Y-4679D01*
X9435Y-4887D01*
X9434Y-5111D01*
X9520Y-5319D01*
X9679Y-5478D01*
X9730Y-5499D01*
X9680Y-5520D01*
X9521Y-5679D01*
X9435Y-5887D01*
X9434Y-6111D01*
X9520Y-6319D01*
X9679Y-6478D01*
X9730Y-6499D01*
X9680Y-6520D01*
X9521Y-6679D01*
X9435Y-6887D01*
X9434Y-7111D01*
X9520Y-7319D01*
X9679Y-7478D01*
X9887Y-7564D01*
X10111Y-7565D01*
X10319Y-7479D01*
X10478Y-7320D01*
X10499Y-7269D01*
X10520Y-7319D01*
X10679Y-7478D01*
X10887Y-7564D01*
X11111Y-7565D01*
X11319Y-7479D01*
X11449Y-7350D01*
X11700Y-7350D01*
X11705Y-7350D01*
X12502Y-8147D01*
X12543Y-8175D01*
X8632Y-8175D01*
X8632Y-4203D01*
X8250Y-3820D01*
X8179Y-3891D01*
X8179Y-3750D01*
X7796Y-3367D01*
X7758Y-3381D01*
X7708Y-3362D01*
X7637Y-3433D01*
X7637Y-3291D01*
X7597Y-3185D01*
X7355Y-3095D01*
X7097Y-3105D01*
X6902Y-3185D01*
X6862Y-3291D01*
X7250Y-3679D01*
X7637Y-3291D01*
X7637Y-3433D01*
X7320Y-3750D01*
X7708Y-4137D01*
X7758Y-4118D01*
X7796Y-4132D01*
X8179Y-3750D01*
X8179Y-3891D01*
X7867Y-4203D01*
X7905Y-4308D01*
X8145Y-4397D01*
X8401Y-4388D01*
X8594Y-4308D01*
X8632Y-4203D01*
X8632Y-8175D01*
X8565Y-8175D01*
X8565Y-6189D01*
X8327Y-5614D01*
X7887Y-5173D01*
X7637Y-5069D01*
X7637Y-4208D01*
X7250Y-3820D01*
X7179Y-3891D01*
X7179Y-3750D01*
X6791Y-3362D01*
X6685Y-3402D01*
X6627Y-3558D01*
X6619Y-3351D01*
X6543Y-3167D01*
X6440Y-3130D01*
X6369Y-3201D01*
X6369Y-3059D01*
X6332Y-2956D01*
X6099Y-2870D01*
X5851Y-2880D01*
X5667Y-2956D01*
X5630Y-3059D01*
X6000Y-3429D01*
X6369Y-3059D01*
X6369Y-3201D01*
X6070Y-3500D01*
X6440Y-3869D01*
X6543Y-3832D01*
X6597Y-3686D01*
X6605Y-3902D01*
X6685Y-4097D01*
X6791Y-4137D01*
X7179Y-3750D01*
X7179Y-3891D01*
X6862Y-4208D01*
X6902Y-4314D01*
X7144Y-4404D01*
X7402Y-4394D01*
X7597Y-4314D01*
X7637Y-4208D01*
X7637Y-5069D01*
X7312Y-4934D01*
X6689Y-4934D01*
X6369Y-5066D01*
X6369Y-3940D01*
X6000Y-3570D01*
X5929Y-3641D01*
X5929Y-3500D01*
X5559Y-3130D01*
X5456Y-3167D01*
X5370Y-3400D01*
X5380Y-3648D01*
X5456Y-3832D01*
X5559Y-3869D01*
X5929Y-3500D01*
X5929Y-3641D01*
X5630Y-3940D01*
X5667Y-4043D01*
X5900Y-4129D01*
X6148Y-4119D01*
X6332Y-4043D01*
X6369Y-3940D01*
X6369Y-5066D01*
X6114Y-5172D01*
X5673Y-5612D01*
X5434Y-6187D01*
X5434Y-6810D01*
X5672Y-7385D01*
X6112Y-7826D01*
X6687Y-8065D01*
X7310Y-8065D01*
X7885Y-7827D01*
X8326Y-7387D01*
X8565Y-6812D01*
X8565Y-6189D01*
X8565Y-8175D01*
X6534Y-8175D01*
X6053Y-8079D01*
X5672Y-7825D01*
X5419Y-7446D01*
X5325Y-6968D01*
X5325Y9468D01*
X5419Y9946D01*
X5672Y10325D01*
X6053Y10579D01*
X6534Y10675D01*
X22968Y10675D01*
X23446Y10580D01*
X23825Y10327D01*
X24079Y9946D01*
X24175Y9465D01*
X24175Y7149D01*
G54D10*
G36*
X24175Y-6965D02*
X24079Y-7446D01*
X24065Y-7467D01*
X24065Y-6189D01*
X23827Y-5614D01*
X23387Y-5173D01*
X22812Y-4934D01*
X22189Y-4934D01*
X21614Y-5172D01*
X21173Y-5612D01*
X20934Y-6187D01*
X20934Y-6810D01*
X21172Y-7385D01*
X21612Y-7826D01*
X22187Y-8065D01*
X22810Y-8065D01*
X23385Y-7827D01*
X23826Y-7387D01*
X24065Y-6812D01*
X24065Y-6189D01*
X24065Y-7467D01*
X23825Y-7827D01*
X23446Y-8080D01*
X22968Y-8175D01*
X19163Y-8175D01*
X19163Y-7613D01*
X19163Y-7362D01*
X19101Y-7300D01*
X18550Y-7300D01*
X18550Y-7851D01*
X18612Y-7913D01*
X18963Y-7913D01*
X19054Y-7875D01*
X19125Y-7805D01*
X19163Y-7713D01*
X19163Y-7613D01*
X19163Y-8175D01*
X16056Y-8175D01*
X16097Y-8147D01*
X16327Y-7917D01*
X16363Y-7932D01*
X16635Y-7933D01*
X16886Y-7829D01*
X17078Y-7637D01*
X17104Y-7574D01*
X17429Y-7250D01*
X17423Y-7244D01*
X17494Y-7173D01*
X17500Y-7179D01*
X17505Y-7173D01*
X17576Y-7244D01*
X17570Y-7250D01*
X17576Y-7255D01*
X17505Y-7326D01*
X17500Y-7320D01*
X17088Y-7732D01*
X17132Y-7841D01*
X17386Y-7937D01*
X17658Y-7928D01*
X17867Y-7841D01*
X17880Y-7810D01*
X17945Y-7875D01*
X18036Y-7913D01*
X18387Y-7913D01*
X18450Y-7851D01*
X18450Y-7300D01*
X18442Y-7300D01*
X18442Y-7200D01*
X18450Y-7200D01*
X18450Y-7192D01*
X18550Y-7192D01*
X18550Y-7200D01*
X19101Y-7200D01*
X19163Y-7137D01*
X19163Y-6886D01*
X19163Y-6787D01*
X19233Y-6773D01*
X19233Y-6773D01*
X19347Y-6697D01*
X22097Y-3947D01*
X22097Y-3947D01*
X22097Y-3947D01*
X22173Y-3833D01*
X22200Y-3700D01*
X22199Y-3700D01*
X22200Y-3700D01*
X22200Y-3600D01*
X22606Y-3600D01*
X22701Y-3695D01*
X22894Y-3775D01*
X23104Y-3775D01*
X23297Y-3695D01*
X23445Y-3548D01*
X23525Y-3355D01*
X23525Y-3169D01*
X23997Y-2697D01*
X23997Y-2697D01*
X23997Y-2697D01*
X24073Y-2583D01*
X24100Y-2450D01*
X24099Y-2450D01*
X24100Y-2450D01*
X24100Y-450D01*
X24073Y-316D01*
X23997Y-202D01*
X23150Y644D01*
X23150Y946D01*
X23208Y888D01*
X23300Y850D01*
X23399Y849D01*
X24175Y849D01*
X24175Y-6965D01*
X24175Y-6965D01*
G37*
G54D28*
X24175Y-6965D02*
X24079Y-7446D01*
X24065Y-7467D01*
X24065Y-6189D01*
X23827Y-5614D01*
X23387Y-5173D01*
X22812Y-4934D01*
X22189Y-4934D01*
X21614Y-5172D01*
X21173Y-5612D01*
X20934Y-6187D01*
X20934Y-6810D01*
X21172Y-7385D01*
X21612Y-7826D01*
X22187Y-8065D01*
X22810Y-8065D01*
X23385Y-7827D01*
X23826Y-7387D01*
X24065Y-6812D01*
X24065Y-6189D01*
X24065Y-7467D01*
X23825Y-7827D01*
X23446Y-8080D01*
X22968Y-8175D01*
X19163Y-8175D01*
X19163Y-7613D01*
X19163Y-7362D01*
X19101Y-7300D01*
X18550Y-7300D01*
X18550Y-7851D01*
X18612Y-7913D01*
X18963Y-7913D01*
X19054Y-7875D01*
X19125Y-7805D01*
X19163Y-7713D01*
X19163Y-7613D01*
X19163Y-8175D01*
X16056Y-8175D01*
X16097Y-8147D01*
X16327Y-7917D01*
X16363Y-7932D01*
X16635Y-7933D01*
X16886Y-7829D01*
X17078Y-7637D01*
X17104Y-7574D01*
X17429Y-7250D01*
X17423Y-7244D01*
X17494Y-7173D01*
X17500Y-7179D01*
X17505Y-7173D01*
X17576Y-7244D01*
X17570Y-7250D01*
X17576Y-7255D01*
X17505Y-7326D01*
X17500Y-7320D01*
X17088Y-7732D01*
X17132Y-7841D01*
X17386Y-7937D01*
X17658Y-7928D01*
X17867Y-7841D01*
X17880Y-7810D01*
X17945Y-7875D01*
X18036Y-7913D01*
X18387Y-7913D01*
X18450Y-7851D01*
X18450Y-7300D01*
X18442Y-7300D01*
X18442Y-7200D01*
X18450Y-7200D01*
X18450Y-7192D01*
X18550Y-7192D01*
X18550Y-7200D01*
X19101Y-7200D01*
X19163Y-7137D01*
X19163Y-6886D01*
X19163Y-6787D01*
X19233Y-6773D01*
X19233Y-6773D01*
X19347Y-6697D01*
X22097Y-3947D01*
X22097Y-3947D01*
X22097Y-3947D01*
X22173Y-3833D01*
X22200Y-3700D01*
X22199Y-3700D01*
X22200Y-3700D01*
X22200Y-3600D01*
X22606Y-3600D01*
X22701Y-3695D01*
X22894Y-3775D01*
X23104Y-3775D01*
X23297Y-3695D01*
X23445Y-3548D01*
X23525Y-3355D01*
X23525Y-3169D01*
X23997Y-2697D01*
X23997Y-2697D01*
X23997Y-2697D01*
X24073Y-2583D01*
X24100Y-2450D01*
X24099Y-2450D01*
X24100Y-2450D01*
X24100Y-450D01*
X24073Y-316D01*
X23997Y-202D01*
X23150Y644D01*
X23150Y946D01*
X23208Y888D01*
X23300Y850D01*
X23399Y849D01*
X24175Y849D01*
X24175Y-6965D01*
M02*
